<?xml version="1.0" standalone="no"?>
<!DOCTYPE svg PUBLIC "-//W3C//DTD SVG 20010904//EN"
 "http://www.w3.org/TR/2001/REC-SVG-20010904/DTD/svg10.dtd">
<svg version="1.0" xmlns="http://www.w3.org/2000/svg"
 width="954.000000pt" height="1080.000000pt" viewBox="0 0 954.000000 1080.000000"
 preserveAspectRatio="xMidYMid meet">
<metadata>
Created by potrace 1.16, written by Peter Selinger 2001-2019
</metadata>
<g transform="translate(0.000000,1080.000000) scale(0.100000,-0.100000)"
fill="#000000" stroke="none">
<path d="M4495 10093 c-283 -10 -945 -188 -1166 -312 -30 -17 -88 -48 -129
-68 -41 -21 -77 -41 -80 -44 -3 -3 -20 -14 -39 -24 -19 -9 -39 -21 -45 -27 -6
-5 -37 -26 -68 -46 -74 -48 -242 -197 -321 -285 -34 -38 -81 -90 -105 -116
-23 -25 -52 -64 -63 -86 -12 -22 -29 -49 -39 -60 -9 -11 -39 -56 -65 -100 -26
-44 -62 -98 -79 -120 -17 -22 -38 -53 -46 -70 -8 -16 -36 -65 -63 -107 -26
-43 -47 -80 -47 -83 0 -2 -14 -27 -31 -55 -17 -27 -35 -67 -41 -87 -6 -21 -38
-96 -73 -168 -76 -157 -92 -207 -100 -305 -4 -41 -11 -91 -16 -110 -16 -57
-52 -421 -51 -505 3 -159 12 -326 22 -392 6 -43 18 -154 26 -248 8 -93 19
-208 24 -255 5 -47 12 -130 15 -185 7 -112 17 -163 46 -218 11 -21 17 -42 14
-47 -3 -5 -27 -12 -53 -15 -74 -10 -119 -33 -131 -68 -8 -22 -8 -34 1 -44 13
-17 -4 -33 -35 -33 -10 0 -20 -7 -24 -15 -6 -18 16 -133 28 -140 7 -5 27 -69
49 -155 5 -19 9 -48 9 -65 0 -16 0 -61 0 -98 0 -48 4 -67 11 -62 6 4 17 -1 24
-11 34 -46 58 23 54 151 -3 95 18 225 37 225 4 0 3 -4 0 -10 -3 -5 -2 -10 3
-10 5 0 10 -32 11 -71 1 -38 6 -80 10 -92 7 -19 9 -16 16 21 4 23 10 40 14 38
4 -3 7 8 6 22 0 21 5 27 22 27 39 0 105 -111 107 -180 l1 -40 -54 -13 c-60
-15 -77 -28 -83 -63 -3 -13 -8 9 -13 49 -4 40 -12 75 -16 78 -21 12 -32 -51
-46 -258 -3 -38 -9 -68 -14 -68 -5 0 -9 -7 -9 -15 0 -8 5 -15 10 -15 6 0 10
-12 10 -26 0 -14 4 -23 9 -20 15 9 19 -18 11 -63 -8 -46 -20 -66 -20 -33 0 11
-4 24 -10 27 -5 3 -10 31 -10 61 0 30 -4 54 -10 54 -5 0 -10 10 -10 22 0 12
-3 19 -6 15 -10 -9 17 -177 28 -177 5 0 7 -9 3 -19 -8 -25 9 -35 25 -16 21 25
32 17 29 -23 -5 -82 44 -232 77 -232 8 0 17 -7 20 -15 4 -8 10 -13 14 -10 5 3
18 -7 30 -22 19 -24 20 -28 6 -31 -9 -2 -23 4 -32 12 -8 9 -22 16 -30 16 -8 0
-28 15 -45 32 -29 32 -29 32 -29 8 0 -31 27 -144 39 -167 5 -10 19 -38 31 -62
36 -74 53 -83 108 -56 37 19 49 59 29 106 -7 19 -14 50 -15 70 -2 30 1 38 20
43 41 10 48 7 48 -24 0 -24 4 -30 23 -30 12 0 40 -16 62 -34 37 -32 39 -36 24
-51 -13 -13 -21 -15 -37 -6 -11 6 -32 10 -46 9 -25 -2 -26 -5 -23 -58 2 -50 0
-55 -20 -58 -24 -4 -29 -23 -25 -86 2 -16 -3 -33 -9 -36 -8 -6 -8 -9 0 -14 6
-4 11 -2 11 3 0 6 7 11 15 11 8 0 15 6 15 13 0 8 25 27 56 42 l56 29 17 -23
c11 -14 23 -20 34 -15 14 5 17 18 16 78 -1 39 -5 78 -10 86 -4 9 -10 58 -13
110 -5 92 -20 160 -35 160 -5 0 -16 19 -26 43 -78 188 -77 183 -59 244 9 31
21 53 29 53 8 0 18 8 23 18 5 9 13 177 16 372 4 195 11 375 14 399 7 42 9 44
40 45 48 1 62 -21 78 -121 35 -227 73 -368 119 -445 19 -33 35 -63 35 -67 0
-4 22 -26 50 -48 27 -22 46 -44 42 -48 -4 -4 3 -4 16 0 15 4 30 2 40 -7 23
-20 65 -34 142 -48 36 -6 85 -16 110 -22 52 -12 199 -26 353 -35 59 -3 107 -8
107 -12 0 -3 12 -7 28 -7 15 -1 47 -4 72 -7 25 -3 120 -1 211 5 158 10 167 9
211 -11 l46 -20 4 -72 c3 -52 8 -74 21 -84 17 -12 24 -65 8 -65 -4 0 -16 -26
-25 -57 -11 -40 -27 -69 -51 -92 -20 -19 -38 -46 -41 -60 -20 -102 -30 -126
-48 -123 -19 4 -36 -13 -36 -35 0 -7 11 -13 24 -13 24 0 24 -1 10 -27 -7 -16
-14 -33 -14 -40 0 -6 -4 -13 -10 -15 -15 -5 8 -78 25 -78 8 0 15 -7 15 -15 0
-18 47 -65 65 -65 8 0 15 -7 15 -15 0 -15 20 -20 78 -17 26 2 34 -3 42 -23 9
-24 13 -27 42 -29 7 -1 22 -11 35 -24 12 -12 27 -22 33 -22 5 0 10 -7 10 -15
0 -8 8 -15 18 -15 10 0 23 -5 30 -12 9 -9 12 -9 12 0 0 17 27 15 34 -3 3 -8
12 -15 21 -15 9 0 18 7 21 15 4 8 17 15 30 15 13 0 28 8 33 19 6 10 26 26 45
35 27 13 44 14 86 6 81 -15 118 -13 129 9 9 16 3 22 -40 44 -65 34 -146 105
-154 134 -3 14 -13 23 -25 23 -15 0 -20 7 -20 25 0 26 -25 45 -58 45 -11 0
-30 8 -43 18 -13 10 -38 19 -56 20 -26 2 -32 -2 -35 -20 -2 -15 -9 -22 -21
-22 -9 1 -17 -2 -17 -7 0 -5 -10 -9 -21 -9 -28 0 -100 -21 -117 -33 -19 -15
-64 37 -72 82 -6 34 7 100 20 111 4 3 11 12 16 21 23 41 69 89 86 89 13 0 18
7 18 25 0 21 5 25 30 25 20 0 30 -5 30 -15 0 -8 9 -15 20 -15 28 0 66 81 73
157 4 54 28 119 78 215 5 10 9 31 9 47 0 16 6 44 14 62 7 19 11 40 9 47 -3 7
2 21 10 30 23 27 48 93 42 113 -6 19 23 79 37 79 4 0 8 18 8 40 0 22 4 40 9
40 8 0 24 145 26 240 1 52 19 125 54 217 23 60 92 85 160 57 44 -17 23 19 231
-409 57 -115 106 -211 111 -213 5 -2 9 -8 9 -13 0 -16 84 -133 123 -171 46
-44 93 -55 159 -34 27 8 46 11 43 6 -2 -4 24 -10 58 -14 34 -3 85 -11 112 -16
151 -32 456 -34 670 -4 310 43 451 95 534 196 36 44 98 205 116 299 8 46 19
104 25 129 5 25 14 78 21 117 13 78 39 133 64 133 8 0 15 -4 15 -10 0 -5 8
-10 18 -10 21 0 47 -25 56 -55 14 -46 26 -286 27 -513 0 -133 2 -249 5 -256 4
-10 18 -13 47 -11 81 8 82 8 83 56 1 24 9 64 18 88 22 60 20 76 -11 101 -23
18 -27 28 -26 68 0 26 8 61 17 77 17 33 20 120 6 195 -4 25 -11 61 -15 81 -10
50 18 79 72 76 30 -2 39 2 49 22 7 13 29 30 49 37 44 15 113 61 126 85 8 15 2
19 -43 26 -28 4 -53 13 -55 18 -1 6 8 22 21 38 28 33 52 116 61 217 4 41 13
90 21 109 8 20 14 67 14 117 0 45 5 86 10 89 6 3 10 36 10 73 0 37 7 110 16
162 13 80 13 122 4 261 -6 92 -15 191 -20 220 -16 95 -21 123 -30 164 -5 22
-21 92 -34 155 -56 256 -123 490 -160 557 -56 104 -136 237 -172 288 -122 172
-138 191 -258 300 -6 6 -56 31 -111 56 -109 51 -110 52 -133 164 -5 28 -17 79
-27 115 -9 36 -14 76 -12 89 3 16 -3 36 -17 55 -13 17 -29 46 -36 64 -7 17
-18 32 -25 32 -18 0 -65 72 -65 99 0 29 -207 234 -320 316 -168 122 -291 182
-535 263 -258 86 -413 113 -770 132 -178 9 -247 10 -420 3z m1060 -1758 c6 -1
18 -6 28 -10 12 -5 24 -3 33 7 15 15 74 13 74 -3 0 -13 44 -11 58 3 7 7 12 8
12 2 0 -9 51 -26 117 -39 17 -3 44 -18 59 -32 37 -34 72 -45 109 -34 21 7 24
10 10 10 -20 2 -20 2 -1 13 15 8 21 8 24 0 2 -7 18 -12 35 -12 49 0 107 -19
107 -35 0 -26 58 -22 80 4 11 13 22 16 40 10 24 -7 24 -7 3 -8 -14 -1 -23 -7
-23 -17 0 -12 6 -15 28 -11 15 4 55 12 90 18 l63 12 30 -32 c16 -18 29 -34 29
-37 0 -13 -33 0 -55 22 -26 26 -45 28 -53 6 -2 -7 3 -12 12 -12 9 0 16 -4 16
-8 0 -5 11 -14 24 -20 13 -6 29 -24 37 -40 9 -21 24 -32 56 -41 24 -7 43 -18
43 -25 0 -6 9 -22 20 -36 11 -14 20 -39 20 -56 0 -17 9 -43 20 -57 11 -14 20
-34 20 -46 0 -13 5 -19 14 -15 7 3 17 -3 21 -13 14 -30 12 -244 -2 -305 -15
-66 -11 -491 5 -511 5 -7 12 -24 16 -39 3 -15 22 -54 41 -87 19 -33 35 -64 35
-69 0 -5 8 -20 19 -33 10 -13 30 -53 46 -89 15 -36 38 -90 52 -120 49 -108 62
-147 74 -225 17 -109 20 -100 -36 -99 -27 1 -93 11 -145 22 -132 29 -263 52
-340 61 -36 4 -59 9 -52 9 6 1 12 8 12 16 0 7 9 16 20 19 32 8 23 35 -17 53
-28 12 -45 13 -65 6 -24 -9 -27 -7 -30 12 -2 17 -10 21 -38 21 -19 1 -39 -1
-43 -3 -10 -5 33 -53 78 -86 20 -15 20 -15 -2 -16 -12 0 -27 9 -33 20 -6 11
-22 23 -35 26 -14 3 -29 12 -33 20 -4 7 -31 16 -60 20 -43 5 -53 3 -58 -10 -5
-14 -17 -16 -64 -12 -32 2 -71 11 -87 19 -16 9 -49 18 -73 20 -102 12 -131 17
-140 22 -5 3 -26 -2 -47 -10 -21 -9 -76 -20 -123 -25 -47 -5 -116 -16 -155
-24 -131 -27 -190 -40 -195 -46 -3 -3 -17 -11 -32 -19 -15 -8 -27 -17 -26 -20
2 -19 -3 -31 -13 -31 -8 0 -8 5 1 15 20 24 -13 19 -35 -5 -10 -11 -26 -22 -36
-25 -11 -4 -19 -13 -19 -21 0 -8 -9 -14 -20 -14 -11 0 -20 -4 -20 -8 0 -10
-76 -45 -145 -66 -65 -20 -257 -31 -315 -17 -130 30 -227 68 -222 89 1 7 -6
12 -16 12 -10 0 -22 4 -28 10 -5 5 -23 11 -40 13 -16 2 -58 22 -94 43 -102 62
-200 98 -295 109 -82 9 -234 33 -325 52 -122 26 -320 32 -320 11 0 -4 -7 -8
-15 -8 -8 0 -15 7 -15 15 0 8 -12 17 -27 21 -16 3 -38 10 -49 16 -33 16 -130
-7 -137 -32 -4 -15 -14 -20 -44 -20 -32 -1 -43 -7 -68 -39 -21 -27 -40 -40
-64 -45 -19 -3 -36 -4 -38 -2 -9 8 11 36 26 36 21 1 71 47 100 93 12 20 28 37
35 37 7 0 17 15 24 34 7 20 29 45 53 62 22 15 46 35 52 44 7 8 24 23 40 33 15
10 27 22 27 28 0 13 25 39 38 39 6 0 25 15 44 33 18 17 49 45 67 60 32 27 33
29 15 41 -15 11 -19 23 -16 60 2 25 8 46 13 46 5 0 25 14 43 30 31 29 33 34
28 78 -3 26 -10 50 -16 55 -7 5 -2 16 17 32 30 27 35 45 11 45 -14 0 -16 9
-12 50 5 47 3 53 -25 76 -24 20 -28 27 -17 34 8 5 11 12 7 17 -5 4 -12 2 -16
-5 -6 -10 -17 -4 -42 21 -31 31 -34 39 -31 81 3 29 9 46 17 46 15 0 25 44 25
111 0 33 4 49 13 49 12 0 19 11 52 80 8 19 23 43 33 54 12 13 13 20 5 23 -8 3
-5 17 11 46 13 23 27 57 31 74 6 31 25 56 25 34 0 -21 40 -11 49 12 11 28 37
51 50 43 5 -3 20 3 32 14 15 12 19 19 10 20 -19 0 6 30 25 30 8 0 14 5 14 10
0 6 4 10 10 10 5 0 7 -7 4 -15 -4 -10 0 -15 15 -15 12 0 21 6 21 15 0 26 24
27 125 10 72 -12 105 -14 127 -6 23 8 37 7 60 -5 20 -10 42 -13 68 -9 41 7
192 -18 245 -40 45 -19 135 -36 185 -34 25 1 69 -2 98 -6 49 -6 54 -5 59 14 3
12 12 21 20 21 8 0 24 11 36 23 24 26 64 40 117 41 27 1 35 5 34 19 -2 15 8
17 77 17 72 0 80 2 95 25 15 23 20 24 95 21 62 -2 82 1 88 12 8 15 22 18 116
26 28 2 61 9 75 15 21 9 59 8 105 -4z m1125 -2086 c52 -6 132 -20 177 -30 45
-10 97 -19 117 -19 19 0 38 -5 41 -10 10 -15 -220 -3 -290 15 -33 9 -94 21
-135 26 -41 6 -92 13 -112 16 -21 3 -38 10 -38 15 0 10 64 7 240 -13z m-402
-9 c37 -5 108 -14 157 -20 110 -14 255 -48 275 -65 8 -7 24 -15 35 -19 30 -9
85 -61 85 -80 0 -14 -4 -15 -21 -5 -24 12 -69 -2 -69 -21 0 -7 -8 -9 -21 -5
-20 7 -22 5 -17 -32 4 -29 1 -46 -12 -63 -18 -24 -22 -24 -147 -23 -190 3
-209 3 -255 1 -24 -2 -74 1 -112 6 -73 8 -80 1 -27 -32 15 -9 42 -34 61 -55
l33 -38 -19 -35 c-13 -24 -28 -37 -47 -41 -16 -3 -31 -12 -34 -19 -8 -22 -176
-53 -188 -34 -3 6 7 26 24 46 45 51 69 111 70 182 1 27 5 32 25 32 l24 0 -24
49 c-23 49 -24 50 -81 56 -32 4 -76 12 -98 20 l-40 13 30 12 c17 7 46 13 65
14 19 1 50 3 68 4 33 2 45 25 18 35 -9 4 -14 19 -13 44 2 42 14 67 37 76 24 9
146 8 218 -3z m-2776 -9 c32 -4 59 -9 62 -11 2 -3 0 -29 -4 -58 -11 -64 -6
-80 29 -94 l26 -11 -32 -8 c-18 -5 -38 -18 -45 -28 -9 -13 -26 -19 -49 -19
-20 0 -54 -9 -76 -21 -51 -26 -185 -43 -238 -31 -32 7 -51 5 -93 -10 -29 -11
-57 -20 -62 -20 -20 0 -32 46 -36 143 -4 78 -9 105 -21 114 -14 11 -13 13 8
21 76 29 402 49 531 33z m3696 -80 c20 -10 44 -27 54 -37 19 -22 54 -183 45
-208 -6 -15 -13 -14 -64 14 -32 16 -62 30 -68 30 -32 1 -39 20 -42 119 -4 97
-3 101 17 101 11 0 37 -9 58 -19z m-4888 -94 c0 -51 -4 -97 -8 -102 -4 -6 -33
-24 -65 -40 -48 -24 -60 -26 -67 -15 -15 24 13 165 39 195 21 26 83 65 93 59
4 -3 8 -47 8 -97z m2995 55 c-16 -15 -48 -35 -70 -43 -26 -10 -40 -21 -39 -32
1 -9 -2 -17 -7 -17 -5 0 -18 -14 -28 -30 -14 -24 -17 -47 -15 -105 1 -41 5
-78 8 -83 3 -5 -4 -19 -15 -30 -18 -21 -19 -23 -3 -21 12 1 24 -26 24 -54 0
-24 -3 -27 -20 -22 -13 4 -20 2 -21 -7 0 -7 -18 25 -40 72 -39 81 -41 87 -37
170 3 73 7 90 28 117 35 45 178 112 240 113 l25 0 -30 -28z m1579 -218 c10
-77 7 -146 -14 -286 -43 -292 -87 -377 -226 -436 -56 -23 -81 -30 -184 -51
-25 -6 -74 -17 -110 -26 -89 -22 -466 -32 -634 -16 -131 12 -346 67 -396 100
-14 9 -37 23 -52 30 -50 25 -89 98 -89 166 0 10 -4 24 -10 31 -5 6 -12 42 -16
79 -6 62 -5 67 13 63 11 -2 19 -12 19 -23 1 -11 6 -19 13 -17 7 1 12 -2 12 -6
0 -18 38 -53 45 -42 12 20 -4 60 -25 60 -17 0 -18 3 -8 25 12 27 -2 55 -29 55
-10 0 -13 6 -9 16 3 9 6 19 6 23 0 4 44 2 97 -5 64 -8 103 -9 115 -3 22 12 38
4 38 -20 0 -24 -20 -41 -47 -41 -20 0 -21 -2 -12 -24 6 -13 20 -27 31 -29 11
-3 22 -15 25 -26 6 -23 87 -55 198 -77 81 -16 262 -19 300 -4 29 11 24 35 -5
27 -13 -3 -17 0 -13 10 3 8 -3 21 -14 28 -21 15 -21 56 -1 82 6 7 4 19 -4 32
-10 16 -10 26 -2 39 10 14 27 17 121 17 91 0 112 3 127 18 21 21 52 22 59 3 3
-8 14 -15 24 -15 10 0 42 -3 72 -7 47 -6 56 -11 73 -40 11 -19 26 -34 33 -34
7 0 15 -4 17 -10 2 -6 19 -5 46 2 54 13 105 71 122 136 17 68 31 102 41 102 5
0 9 6 9 14 0 8 10 13 27 12 18 -1 31 6 38 19 5 11 19 22 30 23 11 2 26 9 33
14 8 7 16 7 25 0 10 -8 20 -3 42 23 16 19 32 35 35 35 4 0 10 -21 14 -46z
m-2982 -15 c15 -11 40 -36 55 -56 15 -19 37 -39 49 -43 17 -7 21 -14 17 -30
-3 -12 -11 -23 -17 -25 -6 -2 -71 -18 -145 -35 -146 -35 -171 -32 -125 16 43
47 53 67 65 130 6 32 13 63 16 67 7 12 52 -1 85 -24z m1721 14 c3 -5 8 -24 11
-44 7 -48 22 -85 46 -119 42 -58 30 -60 -142 -19 -26 6 -74 8 -108 5 -40 -4
-60 -3 -60 4 0 20 20 50 34 50 22 0 77 31 83 47 7 17 102 83 120 83 6 0 14 -3
16 -7z m-2252 -60 c23 -72 57 -129 86 -143 22 -11 24 -14 11 -17 -10 -3 -31 2
-48 10 -16 9 -44 18 -62 22 -34 7 -108 70 -108 91 0 16 71 73 92 74 10 0 21
-14 29 -37z m-801 -86 c0 -80 17 -124 62 -167 29 -27 39 -43 34 -55 -3 -10 -2
-23 3 -29 22 -27 51 -88 51 -107 0 -12 8 -23 19 -26 26 -7 62 -83 39 -83 -7 0
-3 -7 8 -15 18 -14 18 -14 -5 -15 l-24 0 24 -23 c24 -23 24 -23 40 -4 19 23
43 14 36 -13 -9 -33 11 -50 58 -50 32 0 45 4 45 14 0 8 -6 17 -12 19 -7 3 -3
6 10 6 19 1 22 6 22 41 0 26 4 40 13 40 7 0 23 9 35 20 12 11 36 23 54 27 18
3 36 11 40 16 3 6 44 14 90 18 45 4 103 13 127 19 24 6 62 10 85 10 163 -2
395 8 420 18 16 7 43 10 60 6 23 -4 36 -1 45 10 17 20 51 21 51 2 0 -8 5 -16
11 -18 15 -5 -11 -48 -28 -48 -11 0 -18 -19 -14 -42 0 -4 -4 -19 -9 -33 -8
-22 -6 -27 15 -37 19 -9 22 -14 13 -20 -15 -11 -8 -9 54 16 39 15 51 16 63 6
17 -14 20 -40 5 -40 -9 0 -14 14 -11 33 2 14 -8 7 -20 -14 -8 -17 -8 -23 1
-29 32 -20 -96 -77 -235 -105 -185 -37 -448 -45 -645 -20 -171 21 -200 27
-200 36 0 5 -12 9 -26 9 -14 0 -33 4 -43 10 -10 5 -33 12 -52 15 -45 8 -70 16
-83 26 -6 5 -38 27 -72 48 -102 65 -115 95 -159 373 -11 72 -15 219 -5 213 6
-3 10 -30 10 -58z m1383 -107 c14 0 28 -7 31 -17 6 -14 9 -15 15 -4 10 15 43
11 49 -6 2 -9 -9 -13 -37 -13 -22 0 -43 -4 -46 -10 -10 -15 -208 -8 -228 9
-23 18 -21 28 6 37 37 12 151 20 169 12 9 -4 28 -8 41 -8z"/>
<path d="M7382 4780 c-7 -11 -19 -20 -26 -20 -8 0 -18 -10 -21 -22 -15 -45
-147 -158 -186 -158 -30 0 -43 -13 -53 -53 -9 -37 1 -67 22 -67 25 0 82 38 82
54 0 18 22 26 77 26 50 0 62 9 88 63 9 20 21 37 26 37 5 0 9 12 9 26 0 14 5
34 10 45 11 19 4 89 -9 89 -3 0 -12 -9 -19 -20z"/>
<path d="M5090 4203 c-54 -28 -46 -48 20 -48 30 0 64 -5 75 -12 17 -10 18 -14
5 -37 -7 -14 -11 -29 -8 -32 7 -6 95 19 128 36 29 15 23 57 -12 83 -39 29
-160 35 -208 10z"/>
<path d="M3808 3562 c-9 -4 -30 -26 -47 -49 -17 -24 -38 -43 -46 -43 -9 0 -18
-7 -21 -15 -4 -8 -15 -15 -25 -15 -14 0 -21 -9 -25 -30 -4 -16 -15 -32 -25
-35 -14 -5 -19 -16 -19 -40 0 -27 9 -42 50 -81 28 -26 50 -53 50 -60 0 -19 28
-25 44 -9 12 12 16 8 28 -30 14 -42 14 -45 -3 -50 -25 -8 -24 -30 3 -49 16
-11 25 -13 35 -4 16 13 17 44 2 53 -7 5 -5 13 6 25 16 18 17 18 37 -2 12 -12
21 -35 22 -52 2 -48 46 -78 46 -31 0 30 6 31 34 6 132 -121 159 -139 217 -140
15 -1 30 -8 33 -17 4 -10 17 -15 38 -13 18 1 40 -1 48 -4 80 -30 247 -51 415
-50 80 0 193 19 211 34 13 11 13 14 -6 24 -12 6 -47 13 -78 14 -130 4 -222 32
-222 67 0 11 -22 24 -41 24 -5 0 -9 -7 -9 -16 0 -12 -8 -9 -32 12 -24 20 -33
35 -33 58 0 25 -5 32 -24 34 -13 2 -25 11 -28 20 -2 10 -20 27 -39 40 -20 13
-32 27 -28 34 4 6 7 20 8 31 2 32 40 37 312 41 139 2 256 6 262 10 5 3 24 1
42 -4 39 -11 120 7 120 27 0 9 19 13 68 13 84 0 143 -10 136 -22 -3 -5 -14 -6
-25 -3 -13 4 -19 2 -19 -9 0 -20 -48 -32 -71 -17 -41 25 -66 8 -47 -33 10 -23
8 -29 -10 -49 -16 -17 -18 -26 -11 -40 6 -10 11 -31 11 -47 1 -25 5 -30 25
-30 20 0 23 5 23 40 0 36 3 40 24 40 18 0 25 -6 28 -22 4 -33 35 -34 65 -3 15
14 33 23 40 21 8 -3 16 1 19 9 4 8 15 15 26 15 10 0 36 11 56 25 20 14 42 25
48 25 6 0 32 20 57 44 38 36 54 44 96 49 27 3 65 2 83 -4 26 -7 40 -5 66 8 17
10 32 23 32 29 0 15 -75 74 -94 74 -9 0 -16 4 -16 9 0 5 -15 15 -34 21 -27 9
-48 8 -105 -6 -68 -17 -75 -16 -168 2 -107 21 -345 30 -378 14 -11 -5 -67 -11
-125 -13 -88 -3 -111 -7 -143 -26 l-38 -23 -58 26 c-32 14 -73 26 -90 26 -17
0 -39 4 -49 9 -73 39 -118 46 -267 44 -83 -1 -162 -6 -175 -11 -14 -5 -40 -7
-58 -5 -26 4 -31 9 -27 24 5 16 1 19 -29 19 -19 0 -38 5 -41 11 -4 6 -13 8
-21 5 -8 -3 -11 0 -8 9 13 32 -60 56 -108 37z"/>
<path d="M3090 3545 c-6 -8 -9 -19 -5 -25 7 -11 -21 -50 -36 -50 -4 0 -10 12
-12 28 -3 19 -4 14 -6 -15 -1 -31 -5 -43 -16 -43 -21 0 -19 -18 5 -32 23 -14
27 -48 6 -48 -9 0 -16 -31 -25 -117 -10 -103 -10 -118 4 -125 17 -10 21 -58 5
-58 -5 0 -10 -22 -10 -50 0 -27 5 -50 10 -50 6 0 10 -18 10 -40 0 -22 5 -40
10 -40 6 0 10 -28 10 -64 0 -44 5 -67 15 -76 8 -7 15 -20 15 -29 -1 -12 -5
-11 -20 8 -17 19 -23 21 -35 11 -8 -7 -26 -10 -39 -8 -14 3 -25 2 -24 -1 0 -3
0 -24 -1 -46 l-2 -40 -14 30 c-13 27 -13 21 -9 -70 9 -174 11 -195 18 -202 3
-3 6 -19 6 -34 0 -15 5 -31 11 -35 8 -4 9 -30 4 -82 -4 -48 -3 -77 3 -81 6 -4
13 -34 16 -69 2 -34 8 -67 13 -74 4 -7 8 -20 10 -28 1 -8 9 -31 17 -52 9 -21
24 -57 33 -80 57 -140 233 -345 524 -611 106 -97 130 -116 143 -117 13 0 -84
103 -111 118 -13 7 -23 17 -23 23 0 5 -10 23 -21 38 -12 16 -18 34 -15 40 9
14 -7 14 -21 0 -8 -8 -13 -8 -17 0 -4 6 -2 11 3 11 6 0 11 9 11 20 0 11 5 20
10 20 6 0 10 27 10 60 0 47 -3 60 -15 60 -10 0 -15 -10 -15 -32 0 -30 -1 -31
-17 -16 -9 9 -17 26 -18 37 -1 10 -7 27 -14 35 -12 14 -11 19 4 36 25 27 41
25 67 -10 12 -17 29 -30 38 -30 9 0 24 -13 33 -30 10 -16 29 -33 43 -36 17 -4
24 -13 24 -30 0 -13 3 -23 8 -23 28 5 45 -5 57 -33 8 -18 14 -29 15 -24 0 6 5
5 12 -2 8 -8 8 -15 -2 -27 -11 -13 -7 -15 29 -15 29 0 41 -4 41 -15 0 -8 6
-12 15 -9 26 11 38 -7 15 -23 -18 -13 -24 -13 -31 -2 -4 7 -11 11 -14 7 -4 -3
0 -15 7 -27 13 -22 43 -27 66 -12 18 11 105 -34 114 -59 4 -11 14 -20 22 -20
9 0 20 -10 27 -21 6 -12 14 -17 18 -12 3 6 31 13 62 16 44 5 59 4 69 -8 7 -8
25 -15 41 -15 16 0 29 -4 29 -10 0 -15 29 -12 46 4 16 16 19 86 4 86 -5 0 -10
-13 -10 -30 0 -37 -17 -39 -26 -4 -4 16 -2 29 6 34 7 4 11 24 9 48 -2 23 0 44
4 48 4 4 7 20 7 36 0 19 5 28 17 28 15 0 15 1 0 18 -25 27 -21 40 16 51 29 8
29 9 7 10 -24 2 -24 2 -5 13 11 7 38 15 60 19 22 4 75 14 118 23 44 9 124 18
178 21 114 7 332 48 366 70 12 8 33 15 46 15 26 0 82 24 109 47 11 10 27 13
47 8 31 -6 88 13 123 43 9 7 31 15 50 16 18 2 41 4 51 5 9 0 25 10 34 21 12
13 30 20 54 20 20 0 42 7 49 15 7 8 39 22 71 31 55 15 87 34 59 34 -11 0 -3
11 53 71 9 10 17 28 17 39 0 15 7 20 25 20 18 0 25 5 25 20 0 11 5 19 11 18 6
-2 12 7 14 19 1 12 16 35 33 51 20 19 32 40 32 56 0 14 5 26 10 26 6 0 10 14
10 30 0 17 4 30 9 30 16 0 21 29 9 54 -10 24 -11 24 -44 8 -19 -8 -34 -22 -34
-29 0 -7 -9 -13 -20 -13 -11 0 -39 -19 -62 -42 -22 -22 -36 -38 -30 -34 7 4
12 3 12 -2 0 -16 -121 -55 -144 -46 -12 5 -16 0 -16 -18 0 -30 -24 -54 -63
-64 -16 -3 -31 -13 -34 -20 -3 -8 -18 -14 -34 -14 -17 0 -29 -5 -29 -13 0 -6
-15 -18 -32 -25 -18 -7 -49 -21 -69 -32 -76 -40 -172 -69 -284 -85 -11 -1 -29
-6 -40 -11 -11 -5 -106 -9 -211 -9 -171 0 -194 2 -212 18 -17 15 -33 17 -107
13 -68 -4 -95 -1 -124 12 -20 9 -38 19 -41 22 -3 3 -21 17 -40 30 -60 42 -72
57 -65 79 3 12 11 21 16 21 5 0 9 17 9 38 0 35 -3 38 -40 50 -22 6 -57 12 -77
12 -36 0 -39 3 -63 53 -14 28 -39 66 -56 82 -43 41 -83 122 -84 166 0 9 -7 22
-15 29 -9 7 -14 19 -11 26 3 8 -1 28 -8 46 -7 18 -12 38 -9 44 2 7 -5 27 -16
45 -12 19 -21 51 -21 74 0 39 0 39 -16 17 -19 -27 -38 -19 -30 14 5 17 1 27
-14 36 -11 7 -20 21 -20 30 0 10 -4 18 -10 18 -5 0 -10 16 -10 35 0 39 -26 76
-46 68 -9 -3 -14 -21 -14 -44 0 -21 -4 -39 -10 -39 -5 0 -10 11 -10 25 0 30
-24 43 -45 25 -12 -10 -15 -9 -15 7 0 14 -15 26 -48 41 -45 20 -68 38 -100 77
-9 10 -30 15 -68 15 -39 0 -56 4 -60 15 -4 8 -15 15 -25 15 -11 0 -19 7 -19
18 0 9 -9 23 -21 30 -11 7 -18 19 -16 26 3 7 -6 32 -19 56 -13 23 -24 53 -24
65 0 13 -5 27 -11 31 -6 3 -20 26 -31 50 -15 35 -24 44 -43 44 -22 0 -25 4
-25 40 0 30 -7 47 -25 66 -17 17 -25 36 -25 59 0 37 -10 44 -30 20z"/>
<path d="M6840 2443 c0 -4 16 -44 35 -89 51 -118 122 -406 141 -569 13 -112
14 -163 5 -280 -11 -160 -44 -424 -66 -530 -22 -109 -66 -354 -76 -420 -9 -62
-49 -493 -49 -532 l0 -23 1355 0 1355 0 0 389 0 389 -22 5 c-13 3 -48 15 -78
26 -90 32 -393 138 -565 197 -88 30 -169 59 -180 64 -11 5 -47 19 -80 30 -33
12 -69 25 -80 30 -36 16 -426 153 -525 185 -30 9 -79 33 -108 53 -30 21 -61
42 -70 47 -47 29 -171 136 -283 246 -141 138 -263 249 -290 264 -23 13 -94
107 -121 160 -43 84 -136 213 -207 288 -68 71 -91 89 -91 70z"/>
<path d="M2833 2337 c-35 -38 -166 -221 -223 -312 -63 -100 -73 -111 -355
-386 -292 -285 -286 -281 -615 -396 -25 -8 -63 -23 -85 -33 -22 -10 -94 -39
-160 -65 -66 -26 -133 -53 -150 -61 -55 -25 -179 -76 -325 -134 -80 -31 -185
-74 -235 -95 -49 -20 -119 -48 -153 -61 -35 -14 -83 -33 -105 -43 -23 -10 -91
-37 -152 -60 -60 -23 -119 -46 -130 -52 -11 -5 -47 -20 -80 -33 l-60 -24 -3
-291 -2 -291 1438 0 1439 0 -4 102 c-4 142 -23 354 -35 408 -63 287 -117 773
-118 1050 0 138 15 265 50 425 29 134 82 334 94 353 13 21 -12 20 -31 -1z"/>
<path d="M5814 1028 c-17 -13 -52 -43 -77 -68 -25 -25 -112 -109 -194 -188
-141 -137 -237 -231 -265 -260 -7 -8 -44 -43 -81 -78 -77 -72 -69 -85 14 -24
43 32 225 205 275 262 6 7 91 91 189 185 97 95 175 177 173 183 -2 6 -17 1
-34 -12z"/>
<path d="M4300 173 c-41 -16 -259 -129 -290 -149 l-35 -24 758 0 c416 0 757 2
757 6 0 3 -24 17 -52 31 -29 14 -69 33 -89 43 -53 28 -238 90 -265 90 -13 0
-24 -5 -24 -10 0 -25 -54 -30 -218 -20 -264 17 -433 29 -482 34 -25 3 -52 3
-60 -1z"/>
</g>
</svg>
